<?xml version="1.0" encoding="UTF-8" standalone="no"?>
<!-- Created with Inkscape (http://www.inkscape.org/) -->
<svg xmlns="http://www.w3.org/2000/svg" xmlns:svg="http://www.w3.org/2000/svg" version="1.1" id="svg1461" width="682.66669" height="682.66669" viewBox="0 0 682.66669 682.66669">
  <defs id="defs1465">
    <clipPath clipPathUnits="userSpaceOnUse" id="clipPath1479">
      <path d="M 0,512 H 512 V 0 H 0 Z" id="path1477"/>
    </clipPath>
  </defs>
  <mask id="custom"><rect id="bg" x="0" y="0" width="100%" height="100%" fill="white"/><g transform="matrix(1.3333333,0,0,-1.3333333,0,682.66667)"/></mask><g mask="url(#custom)"><g id="g1467" transform="matrix(1.3333333,0,0,-1.3333333,0,682.66667)">
    <g id="g1469" transform="translate(163.0488,79.5527)">
      <path d="M 0,0 V 0" style="fill:none;stroke:#000000;stroke-width:20;stroke-linecap:round;stroke-linejoin:round;stroke-miterlimit:10;stroke-dasharray:none;stroke-opacity:1" id="path1471"/>
    </g>
    <g id="g1473">
      <g id="g1475" clip-path="url(#clipPath1479)">
        <g id="g1481" transform="translate(159.6587,33.8389)">
          <path d="m 0,0 c -2.38,-14.167 -5.088,-23.839 -5.088,-23.839 h 124.571 l 43.093,59.509 h 77.222 c 14.531,0 26.309,11.766 26.309,26.279 v 89.052 h 30.386 c 10.48,0 17.415,10.868 12.98,20.353 -12.972,27.735 -35.687,75.396 -40.283,94.381 8.659,108.118 -78.905,202.426 -183.978,202.426 -9.526,0 -19.339,-0.578 -29.155,-2.018 -94.739,-13.433 -157.543,-76.407 -171.976,-161.175 -11.139,-73.83 19.283,-173.032 93.575,-200.688 6.52,-3.977 11.522,-9.456 15.309,-15.923" style="fill:none;stroke:#000000;stroke-width:20;stroke-linecap:round;stroke-linejoin:round;stroke-miterlimit:10;stroke-dasharray:none;stroke-opacity:1" id="path1483"/>
        </g>
        <g id="g1485" transform="translate(347.5664,297.5571)">
          <path d="M 0,0 C 13.277,13.262 34.803,13.262 48.08,0" style="fill:none;stroke:#000000;stroke-width:20;stroke-linecap:round;stroke-linejoin:round;stroke-miterlimit:10;stroke-dasharray:none;stroke-opacity:1" id="path1487"/>
        </g>
        <g id="g1489" transform="translate(423.2925,149.0869)">
          <path d="M 0,0 C -8.044,-3.313 -17.354,-3.559 -26.021,0.045" style="fill:none;stroke:#000000;stroke-width:20;stroke-linecap:round;stroke-linejoin:round;stroke-miterlimit:10;stroke-dasharray:none;stroke-opacity:1" id="path1491"/>
        </g>
        <g id="g1493" transform="translate(148.9351,268.5527)">
          <path d="m 0,0 c -19.862,-6.224 -32.568,-13.875 -32.568,-24.559 0,-18.752 39.141,-33.954 87.424,-33.954 48.283,0 87.424,15.202 87.424,33.954 0,10.684 -12.703,18.333 -32.563,24.558" style="fill:none;stroke:#000000;stroke-width:20;stroke-linecap:round;stroke-linejoin:round;stroke-miterlimit:10;stroke-dasharray:none;stroke-opacity:1" id="path1495"/>
        </g>
        <g id="g1497" transform="translate(195.1035,250.6636)">
          <path d="m 0,0 c 4.359,-3.915 7.708,-6.333 8.691,-7.61 0.451,0.571 3.87,3.16 8.521,7.732" style="fill:none;stroke:#000000;stroke-width:20;stroke-linecap:round;stroke-linejoin:round;stroke-miterlimit:10;stroke-dasharray:none;stroke-opacity:1" id="path1499"/>
        </g>
        <g id="g1501" transform="translate(239.6162,351.0684)">
          <path d="M 0,0 C -9.175,33.099 -32.905,46 -35.822,49.784 -37.08,48.191 -61.427,31.834 -71.218,-0.37" style="fill:none;stroke:#000000;stroke-width:20;stroke-linecap:round;stroke-linejoin:round;stroke-miterlimit:10;stroke-dasharray:none;stroke-opacity:1" id="path1503"/>
        </g>
        <g id="g1505" transform="translate(298.4253,375.3506)">
          <path d="m 0,0 -7.701,-1.159 c -27.06,-4.69 -50.825,-19.318 -66.924,-41.172 -16.21,-22.018 -22.905,-49.023 -18.845,-76.037 l 8.118,-5.799 c 27.321,4.584 51.31,19.241 67.532,41.28 16.23,22.038 22.925,49.044 18.851,76.043 z" style="fill:none;stroke:#000000;stroke-width:20;stroke-linecap:round;stroke-linejoin:round;stroke-miterlimit:10;stroke-dasharray:none;stroke-opacity:1" id="path1507"/>
        </g>
        <g id="g1509" transform="translate(108.1323,368.5068)">
          <path d="m 0,0 c -4.074,-27 2.621,-54.005 18.851,-76.043 16.222,-22.039 40.211,-36.697 67.532,-41.28 l 8.118,5.799 C 98.562,-84.51 91.867,-57.505 75.656,-35.487 59.558,-13.633 35.792,0.995 8.732,5.685 L 1.031,6.844 Z" style="fill:none;stroke:#000000;stroke-width:20;stroke-linecap:round;stroke-linejoin:round;stroke-miterlimit:10;stroke-dasharray:none;stroke-opacity:1" id="path1511"/>
        </g>
      </g>
    </g>
  </g></g>
</svg>
